{
	"asset":{
		"copyright":"nothke",
		"generator":"Khronos glTF Blender I/O v4.0.44",
		"version":"2.0"
	},
	"scene":0,
	"scenes":[
		{
			"name":"Scene",
			"nodes":[
				0
			]
		}
	],
	"nodes":[
		{
			"mesh":0,
			"name":"track-col"
		}
	],
	"materials":[
		{
			"doubleSided":true,
			"name":"dirtroad",
			"pbrMetallicRoughness":{
				"baseColorTexture":{
					"index":0
				},
				"metallicFactor":0,
				"roughnessFactor":0.5
			}
		}
	],
	"meshes":[
		{
			"name":"Plane",
			"primitives":[
				{
					"attributes":{
						"POSITION":0,
						"TEXCOORD_0":1
					},
					"indices":2,
					"material":0
				}
			]
		}
	],
	"textures":[
		{
			"sampler":0,
			"source":0
		}
	],
	"images":[
		{
			"mimeType":"image/png",
			"name":"dirtroad",
			"uri":"textures/dirtroad.png"
		}
	],
	"accessors":[
		{
			"bufferView":0,
			"componentType":5126,
			"count":4814,
			"max":[
				180.63780212402344,
				17.15555763244629,
				154.7257080078125
			],
			"min":[
				-166.9947967529297,
				-16.255231857299805,
				-177.1772918701172
			],
			"type":"VEC3"
		},
		{
			"bufferView":1,
			"componentType":5126,
			"count":4814,
			"type":"VEC2"
		},
		{
			"bufferView":2,
			"componentType":5123,
			"count":14268,
			"type":"SCALAR"
		}
	],
	"bufferViews":[
		{
			"buffer":0,
			"byteLength":57768,
			"byteOffset":0,
			"target":34962
		},
		{
			"buffer":0,
			"byteLength":38512,
			"byteOffset":57768,
			"target":34962
		},
		{
			"buffer":0,
			"byteLength":28536,
			"byteOffset":96280,
			"target":34963
		}
	],
	"samplers":[
		{
			"magFilter":9729,
			"minFilter":9987
		}
	],
	"buffers":[
		{
			"byteLength":124816,
			"uri":"track.bin"
		}
	]
}
