{
	"asset":{
		"copyright":"nothke",
		"generator":"Khronos glTF Blender I/O v4.0.44",
		"version":"2.0"
	},
	"extensionsUsed":[
		"KHR_materials_specular",
		"KHR_materials_ior"
	],
	"scene":0,
	"scenes":[
		{
			"name":"Scene",
			"nodes":[
				0
			]
		}
	],
	"nodes":[
		{
			"mesh":0,
			"name":"car_body",
			"translation":[
				0,
				0.3146929144859314,
				0
			]
		}
	],
	"materials":[
		{
			"doubleSided":true,
			"extensions":{
				"KHR_materials_specular":{
					"specularColorFactor":[
						1.0479705333709717,
						1.0479705333709717,
						1.0479705333709717
					]
				},
				"KHR_materials_ior":{
					"ior":1.4500000476837158
				}
			},
			"name":"body",
			"pbrMetallicRoughness":{
				"baseColorTexture":{
					"index":0
				},
				"metallicRoughnessTexture":{
					"index":1
				}
			}
		}
	],
	"meshes":[
		{
			"name":"Cube",
			"primitives":[
				{
					"attributes":{
						"POSITION":0,
						"NORMAL":1,
						"TEXCOORD_0":2
					},
					"indices":3,
					"material":0
				}
			]
		}
	],
	"textures":[
		{
			"sampler":0,
			"source":0
		},
		{
			"sampler":0,
			"source":1
		}
	],
	"images":[
		{
			"mimeType":"image/png",
			"name":"body_a",
			"uri":"textures/body_a.png"
		},
		{
			"mimeType":"image/png",
			"name":"car_body_Metallic-car_body_Roughness",
			"uri":"textures/car_body_Metallic-car_body_Roughness.png"
		}
	],
	"accessors":[
		{
			"bufferView":0,
			"componentType":5126,
			"count":1001,
			"max":[
				0.7503221035003662,
				1.31583571434021,
				1.7501094341278076
			],
			"min":[
				-0.750322163105011,
				-0.012533977627754211,
				-1.8731333017349243
			],
			"type":"VEC3"
		},
		{
			"bufferView":1,
			"componentType":5126,
			"count":1001,
			"type":"VEC3"
		},
		{
			"bufferView":2,
			"componentType":5126,
			"count":1001,
			"type":"VEC2"
		},
		{
			"bufferView":3,
			"componentType":5123,
			"count":2874,
			"type":"SCALAR"
		}
	],
	"bufferViews":[
		{
			"buffer":0,
			"byteLength":12012,
			"byteOffset":0,
			"target":34962
		},
		{
			"buffer":0,
			"byteLength":12012,
			"byteOffset":12012,
			"target":34962
		},
		{
			"buffer":0,
			"byteLength":8008,
			"byteOffset":24024,
			"target":34962
		},
		{
			"buffer":0,
			"byteLength":5748,
			"byteOffset":32032,
			"target":34963
		}
	],
	"samplers":[
		{
			"magFilter":9728,
			"minFilter":9984
		}
	],
	"buffers":[
		{
			"byteLength":37780,
			"uri":"car_body.bin"
		}
	]
}
