{
	"asset":{
		"copyright":"nothke",
		"generator":"Khronos glTF Blender I/O v4.0.44",
		"version":"2.0"
	},
	"scene":0,
	"scenes":[
		{
			"name":"Scene",
			"nodes":[
				0
			]
		}
	],
	"nodes":[
		{
			"mesh":0,
			"name":"car_wheel_",
			"translation":[
				0.5993919968605042,
				0.29693281650543213,
				1.0499999523162842
			]
		}
	],
	"materials":[
		{
			"doubleSided":true,
			"name":"tire",
			"pbrMetallicRoughness":{
				"baseColorFactor":[
					0,
					0,
					0,
					1
				],
				"metallicFactor":0,
				"roughnessFactor":0.5
			}
		},
		{
			"doubleSided":true,
			"name":"rim",
			"pbrMetallicRoughness":{
				"baseColorFactor":[
					0.5805181860923767,
					0.5805181860923767,
					0.5805181860923767,
					1
				],
				"metallicFactor":0,
				"roughnessFactor":0.5
			}
		}
	],
	"meshes":[
		{
			"name":"car_wheel",
			"primitives":[
				{
					"attributes":{
						"POSITION":0,
						"NORMAL":1,
						"TEXCOORD_0":2
					},
					"indices":3,
					"material":0
				},
				{
					"attributes":{
						"POSITION":4,
						"NORMAL":5,
						"TEXCOORD_0":6
					},
					"indices":7,
					"material":1
				}
			]
		}
	],
	"accessors":[
		{
			"bufferView":0,
			"componentType":5126,
			"count":180,
			"max":[
				0.10153571516275406,
				0.3050000071525574,
				0.304999977350235
			],
			"min":[
				-0.10153582692146301,
				-0.304999977350235,
				-0.30500003695487976
			],
			"type":"VEC3"
		},
		{
			"bufferView":1,
			"componentType":5126,
			"count":180,
			"type":"VEC3"
		},
		{
			"bufferView":2,
			"componentType":5126,
			"count":180,
			"type":"VEC2"
		},
		{
			"bufferView":3,
			"componentType":5123,
			"count":318,
			"type":"SCALAR"
		},
		{
			"bufferView":4,
			"componentType":5126,
			"count":12,
			"max":[
				0.05903081223368645,
				0.14467187225818634,
				0.14467178285121918
			],
			"min":[
				0.05903078615665436,
				-0.1446717530488968,
				-0.14467184245586395
			],
			"type":"VEC3"
		},
		{
			"bufferView":5,
			"componentType":5126,
			"count":12,
			"type":"VEC3"
		},
		{
			"bufferView":6,
			"componentType":5126,
			"count":12,
			"type":"VEC2"
		},
		{
			"bufferView":7,
			"componentType":5123,
			"count":30,
			"type":"SCALAR"
		}
	],
	"bufferViews":[
		{
			"buffer":0,
			"byteLength":2160,
			"byteOffset":0,
			"target":34962
		},
		{
			"buffer":0,
			"byteLength":2160,
			"byteOffset":2160,
			"target":34962
		},
		{
			"buffer":0,
			"byteLength":1440,
			"byteOffset":4320,
			"target":34962
		},
		{
			"buffer":0,
			"byteLength":636,
			"byteOffset":5760,
			"target":34963
		},
		{
			"buffer":0,
			"byteLength":144,
			"byteOffset":6396,
			"target":34962
		},
		{
			"buffer":0,
			"byteLength":144,
			"byteOffset":6540,
			"target":34962
		},
		{
			"buffer":0,
			"byteLength":96,
			"byteOffset":6684,
			"target":34962
		},
		{
			"buffer":0,
			"byteLength":60,
			"byteOffset":6780,
			"target":34963
		}
	],
	"buffers":[
		{
			"byteLength":6840,
			"uri":"car_wheel.bin"
		}
	]
}
